<?xml version="1.0" encoding="utf-8"?>
<!-- Generator: Adobe Illustrator 26.0.1, SVG Export Plug-In . SVG Version: 6.00 Build 0)  -->
<svg version="1.1" id="Слой_1" xmlns="http://www.w3.org/2000/svg" xmlns:xlink="http://www.w3.org/1999/xlink" x="0px" y="0px"
	 width="500px" height="161.8px" viewBox="0 0 500 161.8" style="enable-background:new 0 0 500 161.8;" xml:space="preserve">
<style type="text/css">
	.st0{fill:url(#SVGID_1_);}
	.st1{fill:url(#SVGID_00000036963671092541523730000003241518776001994113_);}
	.st2{fill:url(#SVGID_00000099637179593015308340000001552761779606893745_);}
	.st3{fill:url(#SVGID_00000053503108845782165020000017993716112856613266_);}
	.st4{fill:url(#SVGID_00000168087036648139642550000007844046044151235988_);}
	.st5{fill:url(#SVGID_00000076569368994472637990000017373670261040410530_);}
</style>
<g>
	<g>
		<linearGradient id="SVGID_1_" gradientUnits="userSpaceOnUse" x1="18.122" y1="86.4719" x2="113.6556" y2="31.3155">
			<stop  offset="0" style="stop-color:#8C007B"/>
			<stop  offset="0.8261" style="stop-color:#FF3A58"/>
		</linearGradient>
		<path class="st0" d="M155.4,41.7L155.4,41.7L16.9,0.6C7.3-2.3-1.8,6.2,0.3,16l29.2,135.4c2.1,9.8,13.9,13.7,21.5,7.2l41.8-36.1
			c-5.4,1.9-11.2,3-17.2,3c-27.4,0-49.8-21.6-51.1-48.8c0-0.8-0.1-1.7-0.1-2.5c0-27.1,21.8-49.1,48.8-49.4c-20.5,3.6-36,21.4-36,43
			c0,0.7,0,1.3,0,2c1,20.3,17.8,36.5,38.3,36.5c18.5,0,33.6-15.1,33.6-33.7c0-1.3-0.1-2.5-0.4-3.8c-0.1-0.5-0.2-1-0.3-1.5
			c0-0.1,0-0.1,0-0.2c-2.4-9-10.6-15.7-20.4-15.7c-11.7,0-21.1,9.5-21.1,21.2c0,9.4,7.6,17,17,17h0.3c-2.3,0.8-4.8,1.3-7.4,1.3
			c-12,0-21.8-9.8-21.8-21.8c0-18.4,14.9-33.3,33.3-33.3c21.2,0,38.4,17.2,38.4,38.5c0,8.8-2.2,17-6.1,24.2l39.6-34.1
			C168.1,57.5,165.3,44.7,155.4,41.7z"/>
	</g>
	<g>
		
			<linearGradient id="SVGID_00000039835208537877548890000000342184652714718620_" gradientUnits="userSpaceOnUse" x1="115.6034" y1="235.1445" x2="542.2272" y2="120.831">
			<stop  offset="0.2" style="stop-color:#F0314A"/>
			<stop  offset="0.29" style="stop-color:#EA304F"/>
			<stop  offset="0.41" style="stop-color:#D92B5E"/>
			<stop  offset="0.54" style="stop-color:#BE2476"/>
			<stop  offset="0.69" style="stop-color:#971B98"/>
			<stop  offset="0.84" style="stop-color:#660EC3"/>
			<stop  offset="1" style="stop-color:#2D00F5"/>
		</linearGradient>
		<path style="fill:url(#SVGID_00000039835208537877548890000000342184652714718620_);" d="M458.3,143.3c0.6,0,1.1,0,1.6,0h-2.7
			C457.6,143.3,457.9,143.3,458.3,143.3z"/>
		
			<linearGradient id="SVGID_00000007414363742154727600000008397271776418087342_" gradientUnits="userSpaceOnUse" x1="166.3706" y1="55.7682" x2="455.6263" y2="222.7701">
			<stop  offset="0.1" style="stop-color:#F0314A"/>
			<stop  offset="0.2" style="stop-color:#EA304F"/>
			<stop  offset="0.3" style="stop-color:#D92B5E"/>
			<stop  offset="0.5" style="stop-color:#BE2476"/>
			<stop  offset="0.7" style="stop-color:#971B98"/>
			<stop  offset="0.85" style="stop-color:#660EC3"/>
			<stop  offset="1" style="stop-color:#2D00F5"/>
		</linearGradient>
		<path style="fill:url(#SVGID_00000007414363742154727600000008397271776418087342_);" d="M267.8,48.3c-3.4-3.4-7.4-6.1-11.9-8.1
			c-4.5-1.9-9.4-2.9-14.7-2.9c-5.2,0-10,0.9-14.5,2.8c-4.5,1.9-8.3,4.5-11.5,8l-1.9-7.6l-16.8,1.8l1.3,16.2c0.1,1.3,0.2,2.6,0.2,3.9
			v79.2h19.2v-35.4c6.5,5.9,14.5,8.9,24.1,8.9c5.2,0,10-1,14.6-3c4.6-2,8.6-4.7,12-8.2c3.4-3.4,6.1-7.5,8-12.3
			c2-4.7,2.9-9.9,2.9-15.5s-1-10.8-2.9-15.5C273.9,55.8,271.2,51.8,267.8,48.3z M257.2,84.5c-1,2.6-2.5,4.9-4.3,6.8
			c-1.8,1.9-4,3.4-6.5,4.5c-2.5,1.1-5.3,1.6-8.3,1.6c-3,0-5.8-0.5-8.4-1.6c-2.6-1.1-4.8-2.6-6.6-4.5c-1.8-2-3.3-4.2-4.3-6.8
			c-1-2.6-1.5-5.4-1.5-8.4c0-3,0.5-5.8,1.5-8.4c1-2.6,2.5-4.9,4.3-6.8s4-3.4,6.6-4.5c2.6-1.1,5.4-1.6,8.4-1.6s5.8,0.6,8.3,1.6
			c2.5,1.1,4.7,2.6,6.5,4.5c1.8,2,3.3,4.2,4.3,6.8c1,2.6,1.5,5.4,1.5,8.4C258.7,79.1,258.2,81.9,257.2,84.5z"/>
		
			<linearGradient id="SVGID_00000094599423131791311160000012569450041036765839_" gradientUnits="userSpaceOnUse" x1="198.3494" y1="0.3792" x2="487.6052" y2="167.381">
			<stop  offset="0.1" style="stop-color:#F0314A"/>
			<stop  offset="0.2" style="stop-color:#EA304F"/>
			<stop  offset="0.3" style="stop-color:#D92B5E"/>
			<stop  offset="0.5" style="stop-color:#BE2476"/>
			<stop  offset="0.7" style="stop-color:#971B98"/>
			<stop  offset="0.85" style="stop-color:#660EC3"/>
			<stop  offset="1" style="stop-color:#2D00F5"/>
		</linearGradient>
		<path style="fill:url(#SVGID_00000094599423131791311160000012569450041036765839_);" d="M317,100c-1.5,0-2.7-0.5-3.7-1.4
			c-1-0.9-1.4-2.4-1.4-4.6l-0.1-70v-1.3c-0.5-11.5-6.2-17.3-17.2-17.3c-1.7,0-3.4,0-5.1,0.3c-3.9,0.5-7.1,1.8-8.8,2.3
			c0,0,3.6,10.4,4.5,12.9c0.8-0.2,1.4-0.3,2.1-0.3c1.5,0,2.7,0.5,3.7,1.4c1,0.9,1.4,2.4,1.4,4.6l0,69.7c0,12.6,5.8,18.9,17.3,18.9
			c1.7,0,3.4,0,5.1-0.3c3.9-0.5,7.1-1.8,8.8-2.3l1.3-14.7c-0.5,0.2-5,1.7-5.8,1.9S317.6,100,317,100z"/>
		
			<linearGradient id="SVGID_00000071538077486721256290000004200747086002791568_" gradientUnits="userSpaceOnUse" x1="210.9844" y1="-21.5053" x2="500.2401" y2="145.4966">
			<stop  offset="0.1" style="stop-color:#F0314A"/>
			<stop  offset="0.2" style="stop-color:#EA304F"/>
			<stop  offset="0.3" style="stop-color:#D92B5E"/>
			<stop  offset="0.5" style="stop-color:#BE2476"/>
			<stop  offset="0.7" style="stop-color:#971B98"/>
			<stop  offset="0.85" style="stop-color:#660EC3"/>
			<stop  offset="1" style="stop-color:#2D00F5"/>
		</linearGradient>
		<path style="fill:url(#SVGID_00000071538077486721256290000004200747086002791568_);" d="M414,99.7L414,99.7
			c-1.6,0-2.9-0.4-3.8-1.3c-1-0.9-1.4-2.4-1.4-4.5V39.1h-16.6l-1,8.4c-3.4-3.2-7.4-5.7-11.8-7.4c-4.4-1.7-9.2-2.6-14.4-2.6
			c-5.2,0-10,1-14.5,2.9c-4.5,2-8.4,4.7-11.7,8.2c-3.3,3.5-6,7.6-7.9,12.4c-2,4.7-2.9,9.8-2.9,15.4c0,5.6,1,10.8,2.9,15.5
			c2,4.7,4.5,8.9,7.8,12.4c3.3,3.5,7.2,6.2,11.7,8.2c4.5,2,9.5,2.9,14.5,2.9s9.8-0.9,14.1-2.6c4.4-1.7,8.2-4.2,11.5-7.4
			c1.2,3.4,3.1,5.8,5.9,7.4c2.7,1.6,6.2,2.3,10.3,2.3c1.7,0,3.5-0.1,5.3-0.4c1.8-0.3,3.3-0.6,4.4-0.9l1.3-14.7
			c-0.4,0.2-1,0.4-1.7,0.6C415.3,99.6,414.7,99.7,414,99.7z M388.1,84.8c-1,2.6-2.5,4.8-4.4,6.7c-1.9,1.9-4.1,3.4-6.6,4.4
			c-2.5,1.1-5.3,1.6-8.3,1.6s-5.8-0.5-8.3-1.6c-2.5-1.1-4.7-2.6-6.5-4.4c-1.8-1.9-3.3-4.1-4.4-6.7c-1.1-2.6-1.6-5.4-1.6-8.6
			c0-3.1,0.5-6,1.6-8.6c1.1-2.6,2.5-4.8,4.4-6.7c1.8-1.9,4-3.4,6.5-4.4c2.5-1.1,5.3-1.6,8.3-1.6s5.8,0.6,8.3,1.6
			c2.5,1.1,4.7,2.6,6.6,4.4c1.9,1.9,3.3,4.1,4.4,6.7c1,2.6,1.5,5.4,1.5,8.6C389.6,79.4,389.1,82.2,388.1,84.8z"/>
		
			<linearGradient id="SVGID_00000114060303220182494760000000018010939044192685_" gradientUnits="userSpaceOnUse" x1="227.1198" y1="-49.4527" x2="516.3756" y2="117.5492">
			<stop  offset="0.1" style="stop-color:#F0314A"/>
			<stop  offset="0.2" style="stop-color:#EA304F"/>
			<stop  offset="0.3" style="stop-color:#D92B5E"/>
			<stop  offset="0.5" style="stop-color:#BE2476"/>
			<stop  offset="0.7" style="stop-color:#971B98"/>
			<stop  offset="0.85" style="stop-color:#660EC3"/>
			<stop  offset="1" style="stop-color:#2D00F5"/>
		</linearGradient>
		<path style="fill:url(#SVGID_00000114060303220182494760000000018010939044192685_);" d="M500,105.1V39.2h-19.4h0h0v39.6
			c0,2.8-0.5,5.3-1.4,7.4c-0.9,2.2-2.2,4-3.7,5.4c-1.6,1.5-3.3,2.6-5.3,3.3c-1.9,0.8-3.9,1.1-5.8,1.1c-5.3,0-9.2-1.5-11.9-4.4
			c-2.6-3-4-7.2-4-12.8V53.1c0-4.8-1.2-8.6-3.6-11.1c-2.4-2.6-6.3-3.9-11.8-3.9c-2.5,0-4.6,0.1-6.4,0.3c-1.8,0.2-3.3,0.5-4.6,1
			l-1,14.5c1.1-0.4,2.3-0.6,3.6-0.6c2.9,0,4.4,1.5,4.4,4.5v25.9c0,5.2,0.7,9.6,2.2,13.4c1.4,3.8,3.4,6.9,5.9,9.3
			c2.5,2.4,5.4,4.2,8.7,5.3c3.3,1.1,6.8,1.7,10.5,1.7c6.2,0,11.2-1.2,15.1-3.6c3.9-2.4,6.9-5.3,9-8.9v5.3c0,6.2-1.8,11.2-5.5,14.9
			c-3.6,3.7-9.8,5.5-18.6,5.5c-5.1,0-9.9-0.7-14.5-2.1c-4.6-1.4-8.9-3.8-13-7.3l3.1,20.5c3.4,1.8,7.5,3.2,12.1,4.1
			c4.3,0.8,8.6,1.3,13,1.3h2.7c12.7-0.3,22.4-3.6,29.3-10.1C496.4,126.4,500,117.1,500,105.1z"/>
	</g>
</g>
</svg>
